<?xml version="1.0" encoding="UTF-8"?>
<!DOCTYPE svg PUBLIC "-//W3C//DTD SVG 1.1//EN" "http://www.w3.org/Graphics/SVG/1.1/DTD/svg11.dtd">
<svg version="1.2" width="26.46mm" height="26.46mm" viewBox="0 0 2646 2646" preserveAspectRatio="xMidYMid" fill-rule="evenodd" stroke-width="28.222" stroke-linejoin="round" xmlns="http://www.w3.org/2000/svg" xmlns:ooo="http://xml.openoffice.org/svg/export" xmlns:xlink="http://www.w3.org/1999/xlink" xmlns:presentation="http://sun.com/xmlns/staroffice/presentation" xmlns:smil="http://www.w3.org/2001/SMIL20/" xmlns:anim="urn:oasis:names:tc:opendocument:xmlns:animation:1.0" xml:space="preserve">
 <defs class="ClipPathGroup">
  <clipPath id="presentation_clip_path" clipPathUnits="userSpaceOnUse">
   <rect x="0" y="0" width="2646" height="2646"/>
  </clipPath>
  <clipPath id="presentation_clip_path_shrink" clipPathUnits="userSpaceOnUse">
   <rect x="2" y="2" width="2641" height="2641"/>
  </clipPath>
 </defs>
 <defs class="TextShapeIndex">
  <g ooo:slide="id1" ooo:id-list="id3"/>
 </defs>
 <defs class="EmbeddedBulletChars">
  <g id="bullet-char-template-57356" transform="scale(0.00048828125,-0.00048828125)">
   <path d="M 580,1141 L 1163,571 580,0 -4,571 580,1141 Z"/>
  </g>
  <g id="bullet-char-template-57354" transform="scale(0.00048828125,-0.00048828125)">
   <path d="M 8,1128 L 1137,1128 1137,0 8,0 8,1128 Z"/>
  </g>
  <g id="bullet-char-template-10146" transform="scale(0.00048828125,-0.00048828125)">
   <path d="M 174,0 L 602,739 174,1481 1456,739 174,0 Z M 1358,739 L 309,1346 659,739 1358,739 Z"/>
  </g>
  <g id="bullet-char-template-10132" transform="scale(0.00048828125,-0.00048828125)">
   <path d="M 2015,739 L 1276,0 717,0 1260,543 174,543 174,936 1260,936 717,1481 1274,1481 2015,739 Z"/>
  </g>
  <g id="bullet-char-template-10007" transform="scale(0.00048828125,-0.00048828125)">
   <path d="M 0,-2 C -7,14 -16,27 -25,37 L 356,567 C 262,823 215,952 215,954 215,979 228,992 255,992 264,992 276,990 289,987 310,991 331,999 354,1012 L 381,999 492,748 772,1049 836,1024 860,1049 C 881,1039 901,1025 922,1006 886,937 835,863 770,784 769,783 710,716 594,584 L 774,223 C 774,196 753,168 711,139 L 727,119 C 717,90 699,76 672,76 641,76 570,178 457,381 L 164,-76 C 142,-110 111,-127 72,-127 30,-127 9,-110 8,-76 1,-67 -2,-52 -2,-32 -2,-23 -1,-13 0,-2 Z"/>
  </g>
  <g id="bullet-char-template-10004" transform="scale(0.00048828125,-0.00048828125)">
   <path d="M 285,-33 C 182,-33 111,30 74,156 52,228 41,333 41,471 41,549 55,616 82,672 116,743 169,778 240,778 293,778 328,747 346,684 L 369,508 C 377,444 397,411 428,410 L 1163,1116 C 1174,1127 1196,1133 1229,1133 1271,1133 1292,1118 1292,1087 L 1292,965 C 1292,929 1282,901 1262,881 L 442,47 C 390,-6 338,-33 285,-33 Z"/>
  </g>
  <g id="bullet-char-template-9679" transform="scale(0.00048828125,-0.00048828125)">
   <path d="M 813,0 C 632,0 489,54 383,161 276,268 223,411 223,592 223,773 276,916 383,1023 489,1130 632,1184 813,1184 992,1184 1136,1130 1245,1023 1353,916 1407,772 1407,592 1407,412 1353,268 1245,161 1136,54 992,0 813,0 Z"/>
  </g>
  <g id="bullet-char-template-8226" transform="scale(0.00048828125,-0.00048828125)">
   <path d="M 346,457 C 273,457 209,483 155,535 101,586 74,649 74,723 74,796 101,859 155,911 209,963 273,989 346,989 419,989 480,963 531,910 582,859 608,796 608,723 608,648 583,586 532,535 482,483 420,457 346,457 Z"/>
  </g>
  <g id="bullet-char-template-8211" transform="scale(0.00048828125,-0.00048828125)">
   <path d="M -4,459 L 1135,459 1135,606 -4,606 -4,459 Z"/>
  </g>
  <g id="bullet-char-template-61548" transform="scale(0.00048828125,-0.00048828125)">
   <path d="M 173,740 C 173,903 231,1043 346,1159 462,1274 601,1332 765,1332 928,1332 1067,1274 1183,1159 1299,1043 1357,903 1357,740 1357,577 1299,437 1183,322 1067,206 928,148 765,148 601,148 462,206 346,322 231,437 173,577 173,740 Z"/>
  </g>
 </defs>
 <defs class="TextEmbeddedBitmaps"/>
 <g>
  <g id="id2" class="Master_Slide">
   <g id="bg-id2" class="Background"/>
   <g id="bo-id2" class="BackgroundObjects"/>
  </g>
 </g>
 <g class="SlideGroup">
  <g>
   <g id="container-id1">
    <g id="id1" class="Slide" clip-path="url(#presentation_clip_path)">
     <g class="Page">
      <g class="Graphic">
       <g id="id3">
        <rect class="BoundingBox" stroke="none" fill="none" x="0" y="0" width="2646" height="2646"/>
        <defs>
         <clipPath id="clip_path_1" clipPathUnits="userSpaceOnUse">
          <path d="M 0,0 L 2645,0 2645,2645 0,2645 0,0 Z"/>
         </clipPath>
        </defs>
        <g clip-path="url(#clip_path_1)">
         <path fill="rgb(0,0,0)" stroke="none" d="M 1241,323 C 1071,323 932,461 932,632 932,802 1071,941 1241,941 1412,941 1550,802 1550,632 1550,461 1412,323 1241,323 L 1241,323 Z M 1241,818 C 1139,818 1055,734 1055,632 1055,529 1139,446 1241,446 1344,446 1427,529 1427,632 1427,734 1344,818 1241,818 L 1241,818 Z"/>
         <path fill="rgb(0,0,0)" stroke="none" d="M 744,769 C 665,743 582,750 508,787 434,825 380,889 355,967 329,1046 336,1129 374,1203 411,1277 475,1331 553,1356 585,1367 617,1371 648,1371 778,1371 900,1288 942,1158 968,1079 961,996 923,922 886,849 822,795 744,769 L 744,769 Z M 825,1120 C 810,1168 777,1206 733,1228 688,1251 638,1254 591,1240 543,1224 505,1191 483,1147 460,1103 456,1053 471,1005 487,958 519,919 564,897 590,883 619,877 648,877 668,877 687,880 705,886 L 705,886 C 753,901 792,934 814,978 836,1023 841,1073 825,1120 L 825,1120 Z"/>
         <path fill="rgb(0,0,0)" stroke="none" d="M 693,2009 C 746,2048 810,2068 874,2068 891,2068 907,2067 923,2064 1005,2051 1077,2008 1125,1940 1173,1874 1193,1792 1180,1710 1167,1629 1123,1557 1056,1509 990,1460 908,1440 826,1454 745,1467 673,1510 624,1577 L 624,1577 C 576,1644 556,1726 569,1808 583,1890 627,1961 693,2009 L 693,2009 Z M 724,1650 C 754,1610 796,1584 846,1576 895,1568 944,1580 984,1609 1024,1639 1050,1681 1059,1731 1066,1780 1055,1829 1025,1869 996,1909 953,1935 904,1944 855,1951 805,1940 765,1910 725,1881 699,1838 691,1789 683,1740 695,1690 724,1650 L 724,1650 724,1650 Z"/>
         <path fill="rgb(0,0,0)" stroke="none" d="M 1559,2065 C 1576,2067 1592,2069 1608,2069 1673,2069 1736,2048 1790,2010 1856,1962 1900,1890 1913,1808 1926,1727 1907,1645 1858,1578 1810,1512 1738,1468 1657,1454 1576,1441 1494,1461 1427,1509 1290,1609 1259,1803 1359,1940 L 1359,1940 C 1406,2008 1478,2052 1559,2065 L 1559,2065 Z M 1499,1609 C 1581,1549 1698,1567 1758,1650 1788,1690 1799,1740 1792,1789 1785,1838 1758,1881 1717,1910 1677,1940 1628,1951 1579,1944 1530,1936 1487,1909 1458,1869 L 1458,1869 C 1397,1786 1415,1669 1499,1609 L 1499,1609 Z"/>
         <path fill="rgb(0,0,0)" stroke="none" d="M 1835,1372 C 1867,1372 1899,1367 1930,1357 2092,1304 2180,1130 2128,968 2103,889 2048,825 1975,788 1901,751 1817,744 1739,769 1577,822 1488,996 1540,1159 1583,1288 1704,1372 1835,1372 L 1835,1372 Z M 1776,886 C 1795,879 1815,877 1834,877 1862,877 1891,883 1918,897 1962,920 1995,958 2011,1005 2043,1103 1989,1208 1891,1240 1794,1272 1689,1218 1657,1120 1626,1023 1679,918 1776,886 L 1776,886 Z"/>
         <path fill="rgb(0,0,0)" stroke="none" d="M 1346,1255 C 1346,1275 1342,1291 1332,1308 1323,1324 1311,1336 1294,1346 1277,1356 1261,1360 1241,1360 1222,1360 1206,1356 1189,1346 1172,1336 1160,1324 1151,1308 1141,1291 1136,1275 1136,1255 1136,1236 1141,1220 1151,1203 1160,1186 1172,1174 1189,1164 1206,1155 1222,1150 1241,1150 1261,1150 1277,1155 1294,1164 1311,1174 1323,1186 1332,1203 1342,1220 1346,1236 1346,1255 L 1346,1255 Z"/>
         <path fill="rgb(0,0,0)" stroke="none" d="M 2583,2361 L 1241,2361 C 624,2361 122,1858 122,1241 122,624 624,122 1241,122 1858,122 2361,624 2361,1241 2361,1595 2190,1933 1904,2144 1877,2164 1871,2203 1891,2230 1912,2257 1950,2262 1977,2243 2130,2130 2258,1980 2346,1812 2436,1637 2484,1440 2484,1242 2484,557 1927,0 1242,0 557,0 0,557 0,1242 0,1927 557,2484 1242,2484 L 2584,2484 C 2617,2484 2645,2457 2645,2423 2645,2389 2616,2361 2583,2361 L 2583,2361 Z"/>
        </g>
       </g>
      </g>
     </g>
    </g>
   </g>
  </g>
 </g>
</svg>